<svg width="2058" height="2058" viewBox="0 0 2058 2058" fill="none" xmlns="http://www.w3.org/2000/svg">
<g clip-path="url(#clip0_959_415)">
<rect width="2058" height="2058" fill="black"/>
<ellipse cx="782.956" cy="681" rx="516.513" ry="410.519" transform="rotate(-24.933 782.956 681)" fill="white"/>
<path d="M883.781 434.011C912.43 492.14 865.558 573.809 779.091 616.423C692.624 659.038 599.304 646.462 570.656 588.333C542.007 530.204 588.879 448.536 675.346 405.921C761.813 363.306 855.133 375.882 883.781 434.011Z" fill="black"/>
<path d="M933.583 626.926C972.943 706.79 921.655 812.536 819.028 863.115C716.4 913.695 601.296 889.955 561.936 810.091C522.575 730.226 573.863 624.481 676.491 573.902C779.118 523.322 894.222 547.062 933.583 626.926Z" fill="black"/>
<path d="M765.19 478.863C775.171 499.839 760.267 529.252 731.9 544.56C703.533 559.868 672.445 555.273 662.464 534.297C652.483 513.321 667.388 483.908 695.755 468.6C724.122 453.292 755.209 457.887 765.19 478.863Z" fill="white"/>
<path d="M802.354 665.831C819.226 694.916 801.697 736.595 763.203 758.925C724.709 781.255 679.827 775.778 662.955 746.694C646.083 717.609 663.612 675.929 702.106 653.599C740.6 631.27 785.482 636.746 802.354 665.831Z" fill="white"/>
</g>
<defs>
<clipPath id="clip0_959_415">
<rect width="2058" height="2058" fill="white"/>
</clipPath>
</defs>
</svg>
